<svg width="241" height="230" viewBox="0 0 241 230" fill="none" xmlns="http://www.w3.org/2000/svg">
<g style="mix-blend-mode:multiply" filter="url(#filter0_d_1_8)">
<path d="M98.4999 52.6664C152 104.666 82.4999 7.66635 173 7.66638C253.717 7.66641 226.248 167.425 219.366 201.966C218.707 205.271 215.11 206.679 212.441 204.62C200.339 195.282 171.86 168.242 161.5 114.5C153.818 74.6508 161.307 184.347 100.844 132.719C99.4385 131.519 97.4061 131.044 95.708 131.773C74.8948 140.707 77.8436 156 80.4245 162.77C81.2174 164.85 80.9938 167.247 79.4526 168.852C65.2583 183.643 -2.84313 252.187 13.8107 187.889C13.9264 187.442 13.9954 186.913 13.9876 186.452C11.0954 17.1202 45.075 0.739326 98.4999 52.6664Z" fill="#264778"/>
<path d="M98.4999 52.6664C152 104.666 82.4999 7.66635 173 7.66638C253.717 7.66641 226.248 167.425 219.366 201.966C218.707 205.271 215.11 206.679 212.441 204.62C200.339 195.282 171.86 168.242 161.5 114.5C153.818 74.6508 161.307 184.347 100.844 132.719C99.4385 131.519 97.4061 131.044 95.708 131.773C74.8948 140.707 77.8436 156 80.4245 162.77C81.2174 164.85 80.9938 167.247 79.4526 168.852C65.2583 183.643 -2.84313 252.187 13.8107 187.889C13.9264 187.442 13.9954 186.913 13.9876 186.452C11.0954 17.1202 45.075 0.739326 98.4999 52.6664Z" fill="#638DB4" fill-opacity="0.2"/>
<path d="M158.386 116.801C169.205 170.498 197.834 197.77 210.303 207.391C215.097 211.09 221.65 208.416 222.798 202.65C226.251 185.324 234.914 136.393 232.528 91.6768C231.336 69.3573 227.376 47.6731 218.32 31.4615C209.134 15.0161 194.64 4.16639 173 4.16638C149.778 4.16637 135.985 10.4027 128.038 19.7419C120.191 28.9628 118.696 40.4854 118.377 49.5432C118.297 51.828 118.291 53.9993 118.288 55.9531L118.288 56.1668C118.285 58.0583 118.283 59.7018 118.224 61.1341C118.165 62.5347 118.057 63.5522 117.899 64.2639C117.327 64.0223 116.489 63.57 115.326 62.774C112.198 60.6336 107.617 56.6472 100.939 50.1566C87.4889 37.0832 74.8393 27.863 63.3335 24.4925C57.5029 22.7845 51.832 22.5391 46.4893 24.1845C41.1376 25.8325 36.4319 29.2804 32.3772 34.419C24.3817 44.5519 18.6319 61.6176 14.997 86.2988C11.3441 111.101 9.76346 144.087 10.4881 186.511C10.4901 186.628 10.4665 186.842 10.4225 187.011C8.3046 195.188 7.44138 201.576 7.77606 206.381C8.10879 211.159 9.71124 215.147 13.337 217.175C16.7775 219.099 20.9018 218.577 24.621 217.343C28.4626 216.069 32.692 213.765 36.981 210.957C54.0793 199.76 74.9098 178.641 81.9778 171.276C84.6755 168.465 84.8457 164.542 83.6949 161.523C82.5267 158.459 81.4034 153.758 82.6754 148.984C83.8917 144.42 87.4799 139.114 97.0887 134.989C97.3436 134.879 97.9839 134.879 98.571 135.38C113.957 148.518 126.082 152.334 135.764 149.399C145.29 146.511 150.802 137.538 154.197 129.37C155.938 125.18 157.232 120.933 158.245 117.308C158.293 117.137 158.34 116.968 158.386 116.801Z" stroke="white" stroke-width="7"/>
</g>
<defs>
<filter id="filter0_d_1_8" x="0.206238" y="0.666382" width="240.231" height="229.281" filterUnits="userSpaceOnUse" color-interpolation-filters="sRGB">
<feFlood flood-opacity="0" result="BackgroundImageFix"/>
<feColorMatrix in="SourceAlpha" type="matrix" values="0 0 0 0 0 0 0 0 0 0 0 0 0 0 0 0 0 0 127 0" result="hardAlpha"/>
<feOffset dy="4"/>
<feGaussianBlur stdDeviation="2"/>
<feComposite in2="hardAlpha" operator="out"/>
<feColorMatrix type="matrix" values="0 0 0 0 0 0 0 0 0 0 0 0 0 0 0 0 0 0 0.25 0"/>
<feBlend mode="normal" in2="BackgroundImageFix" result="effect1_dropShadow_1_8"/>
<feBlend mode="normal" in="SourceGraphic" in2="effect1_dropShadow_1_8" result="shape"/>
</filter>
</defs>
</svg>
